<svg width="60" height="59" viewBox="0 0 60 59" fill="none" xmlns="http://www.w3.org/2000/svg">
<g filter="url(#filter0_d_574_195)">
<rect x="0.5" y="0.276917" width="54.7" height="54.7" rx="10" fill="white" shape-rendering="crispEdges"/>
<rect x="1" y="0.776917" width="53.7" height="53.7" rx="9.5" stroke="black" shape-rendering="crispEdges"/>
<rect width="34.7" height="34.7" transform="translate(10.5 10.2769)" fill="white"/>
<path d="M27.8502 31.7909C26.5345 31.7909 25.4646 30.721 25.4646 29.4053V25.8341C25.4646 24.5184 26.5345 23.4484 27.8502 23.4484C29.1659 23.4484 30.2359 24.5184 30.2359 25.8341V29.4053C30.2359 30.721 29.1659 31.7909 27.8502 31.7909Z" stroke="#090E14" stroke-width="1.735" stroke-linecap="round"/>
<path d="M35.0503 29.7522C34.7611 33.4824 31.6381 36.4031 27.85 36.4031C23.8595 36.4031 20.6208 33.1644 20.6208 29.1739V26.0798C20.6208 22.0893 23.8595 18.8506 27.85 18.8506C31.5947 18.8506 34.6744 21.6989 35.0358 25.3424" stroke="#090E14" stroke-width="1.735" stroke-linecap="round"/>
<path d="M32.1875 13.1686H35.0792C39.4167 13.1686 42.3083 16.0602 42.3083 20.3977V23.2894" stroke="#090E14" stroke-width="1.735" stroke-miterlimit="10" stroke-linecap="round" stroke-linejoin="round"/>
<path d="M13.3916 23.2894V20.3977C13.3916 16.0602 16.2833 13.1686 20.6208 13.1686H23.5124" stroke="#090E14" stroke-width="1.735" stroke-miterlimit="10" stroke-linecap="round" stroke-linejoin="round"/>
<path d="M32.1875 42.0852H35.0792C39.4167 42.0852 42.3083 39.1936 42.3083 34.8561V31.9644" stroke="#090E14" stroke-width="1.735" stroke-miterlimit="10" stroke-linecap="round" stroke-linejoin="round"/>
<path d="M13.3916 31.9644V34.8561C13.3916 39.1936 16.2833 42.0852 20.6208 42.0852H23.5124" stroke="#090E14" stroke-width="1.735" stroke-miterlimit="10" stroke-linecap="round" stroke-linejoin="round"/>
</g>
<defs>
<filter id="filter0_d_574_195" x="0.5" y="0.276917" width="58.7" height="58.7" filterUnits="userSpaceOnUse" color-interpolation-filters="sRGB">
<feFlood flood-opacity="0" result="BackgroundImageFix"/>
<feColorMatrix in="SourceAlpha" type="matrix" values="0 0 0 0 0 0 0 0 0 0 0 0 0 0 0 0 0 0 127 0" result="hardAlpha"/>
<feOffset dx="4" dy="4"/>
<feComposite in2="hardAlpha" operator="out"/>
<feColorMatrix type="matrix" values="0 0 0 0 0 0 0 0 0 0 0 0 0 0 0 0 0 0 1 0"/>
<feBlend mode="normal" in2="BackgroundImageFix" result="effect1_dropShadow_574_195"/>
<feBlend mode="normal" in="SourceGraphic" in2="effect1_dropShadow_574_195" result="shape"/>
</filter>
</defs>
</svg>
