<svg width="59" height="59" viewBox="0 0 59 59" fill="none" xmlns="http://www.w3.org/2000/svg">
<g filter="url(#filter0_d_587_577)">
<rect y="0.276855" width="54.7" height="54.7" rx="10" fill="white" shape-rendering="crispEdges"/>
<rect x="0.5" y="0.776855" width="53.7" height="53.7" rx="9.5" stroke="black" shape-rendering="crispEdges"/>
<rect width="34.7" height="34.7" transform="translate(10 10.2769)" fill="white"/>
<path d="M12.8916 23.2893V19.6747C12.8916 16.0746 15.7977 13.1685 19.3979 13.1685H23.0124" stroke="#090E14" stroke-width="1.735" stroke-linecap="round" stroke-linejoin="round"/>
<path d="M31.6875 13.1685H35.3021C38.9022 13.1685 41.8083 16.0746 41.8083 19.6747V23.2893" stroke="#090E14" stroke-width="1.735" stroke-linecap="round" stroke-linejoin="round"/>
<path d="M41.8083 33.4102V35.5789C41.8083 39.179 38.9022 42.0852 35.3021 42.0852H33.1333" stroke="#090E14" stroke-width="1.735" stroke-linecap="round" stroke-linejoin="round"/>
<path d="M23.0124 42.0852H19.3979C15.7977 42.0852 12.8916 39.1791 12.8916 35.5789V31.9644" stroke="#090E14" stroke-width="1.735" stroke-linecap="round" stroke-linejoin="round"/>
<path d="M34.5792 24.0123V31.2415C34.5792 34.1331 33.1333 35.579 30.2417 35.579H24.4583C21.5667 35.579 20.1208 34.1331 20.1208 31.2415V24.0123C20.1208 21.1206 21.5667 19.6748 24.4583 19.6748H30.2417C33.1333 19.6748 34.5792 21.1206 34.5792 24.0123Z" stroke="#090E14" stroke-width="1.735" stroke-linecap="round" stroke-linejoin="round"/>
<path d="M37.4709 27.627H17.2292" stroke="#090E14" stroke-width="1.735" stroke-linecap="round" stroke-linejoin="round"/>
</g>
<defs>
<filter id="filter0_d_587_577" x="0" y="0.276855" width="58.7" height="58.7" filterUnits="userSpaceOnUse" color-interpolation-filters="sRGB">
<feFlood flood-opacity="0" result="BackgroundImageFix"/>
<feColorMatrix in="SourceAlpha" type="matrix" values="0 0 0 0 0 0 0 0 0 0 0 0 0 0 0 0 0 0 127 0" result="hardAlpha"/>
<feOffset dx="4" dy="4"/>
<feComposite in2="hardAlpha" operator="out"/>
<feColorMatrix type="matrix" values="0 0 0 0 0 0 0 0 0 0 0 0 0 0 0 0 0 0 1 0"/>
<feBlend mode="normal" in2="BackgroundImageFix" result="effect1_dropShadow_587_577"/>
<feBlend mode="normal" in="SourceGraphic" in2="effect1_dropShadow_587_577" result="shape"/>
</filter>
</defs>
</svg>
