<svg width="59" height="59" viewBox="0 0 59 59" fill="none" xmlns="http://www.w3.org/2000/svg">
<g filter="url(#filter0_d_587_546)">
<rect y="0.276855" width="54.7" height="54.7" rx="10" fill="white" shape-rendering="crispEdges"/>
<rect x="0.5" y="0.776855" width="53.7" height="53.7" rx="9.5" stroke="black" shape-rendering="crispEdges"/>
<rect width="34.7" height="34.7" transform="translate(10 10.2769)" fill="white"/>
<path d="M12.8916 23.2894V19.6748C12.8916 16.0747 15.7977 13.1686 19.3979 13.1686H23.0124" stroke="#090E14" stroke-width="1.735" stroke-linecap="round" stroke-linejoin="round"/>
<path d="M31.6875 13.1686H35.3021C38.9022 13.1686 41.8083 16.0747 41.8083 19.6748V23.2894" stroke="#090E14" stroke-width="1.735" stroke-linecap="round" stroke-linejoin="round"/>
<path d="M41.8083 33.4102V35.5789C41.8083 39.179 38.9022 42.0852 35.3021 42.0852H33.1333" stroke="#090E14" stroke-width="1.735" stroke-linecap="round" stroke-linejoin="round"/>
<path d="M23.0124 42.0852H19.3979C15.7977 42.0852 12.8916 39.1791 12.8916 35.5789V31.9644" stroke="#090E14" stroke-width="1.735" stroke-linecap="round" stroke-linejoin="round"/>
<path d="M22.2896 26.1811C24.2859 26.1811 25.9042 24.5628 25.9042 22.5665C25.9042 20.5702 24.2859 18.9519 22.2896 18.9519C20.2934 18.9519 18.675 20.5702 18.675 22.5665C18.675 24.5628 20.2934 26.1811 22.2896 26.1811Z" stroke="#090E14" stroke-width="1.735" stroke-linecap="round" stroke-linejoin="round"/>
<path d="M20.8438 36.3019C22.0416 36.3019 23.0125 35.3309 23.0125 34.1331C23.0125 32.9353 22.0416 31.9644 20.8438 31.9644C19.646 31.9644 18.675 32.9353 18.675 34.1331C18.675 35.3309 19.646 36.3019 20.8438 36.3019Z" stroke="#090E14" stroke-width="1.735" stroke-linecap="round" stroke-linejoin="round"/>
<path d="M33.8563 23.2894C35.054 23.2894 36.025 22.3184 36.025 21.1207C36.025 19.9229 35.054 18.9519 33.8563 18.9519C32.6585 18.9519 31.6875 19.9229 31.6875 21.1207C31.6875 22.3184 32.6585 23.2894 33.8563 23.2894Z" stroke="#090E14" stroke-width="1.47" stroke-linecap="round" stroke-linejoin="round"/>
<path d="M32.4105 36.3018C34.4068 36.3018 36.0251 34.6835 36.0251 32.6872C36.0251 30.6909 34.4068 29.0726 32.4105 29.0726C30.4142 29.0726 28.7959 30.6909 28.7959 32.6872C28.7959 34.6835 30.4142 36.3018 32.4105 36.3018Z" stroke="#090E14" stroke-width="1.74" stroke-linecap="round" stroke-linejoin="round"/>
</g>
<defs>
<filter id="filter0_d_587_546" x="0" y="0.276855" width="58.7" height="58.7" filterUnits="userSpaceOnUse" color-interpolation-filters="sRGB">
<feFlood flood-opacity="0" result="BackgroundImageFix"/>
<feColorMatrix in="SourceAlpha" type="matrix" values="0 0 0 0 0 0 0 0 0 0 0 0 0 0 0 0 0 0 127 0" result="hardAlpha"/>
<feOffset dx="4" dy="4"/>
<feComposite in2="hardAlpha" operator="out"/>
<feColorMatrix type="matrix" values="0 0 0 0 0 0 0 0 0 0 0 0 0 0 0 0 0 0 1 0"/>
<feBlend mode="normal" in2="BackgroundImageFix" result="effect1_dropShadow_587_546"/>
<feBlend mode="normal" in="SourceGraphic" in2="effect1_dropShadow_587_546" result="shape"/>
</filter>
</defs>
</svg>
